<svg width="32" height="32" viewBox="0 0 32 32" fill="none" xmlns="http://www.w3.org/2000/svg">
<rect width="32" height="32" fill="#F85505"/>
<path d="M17.7301 5H22.7498V5.40282C21.5724 5.49578 21.2625 6.11549 21.2625 7.32394V19.0676C21.2625 24.5521 18.9696 27 15.3442 27C12.6794 27 10.6343 25.4507 10.1386 24.1493C9.89068 23.4986 9.95266 22.7239 10.5104 22.3831C10.9442 22.1042 11.5639 22.1352 11.9048 22.4761C12.2456 22.8169 12.2456 23.3127 12.2456 23.7465C12.2146 24.769 12.9273 26.4423 15.4681 26.4423C18.3808 26.4423 19.2174 23.7775 19.2174 19.6873V7.32394C19.2174 6.11549 18.9076 5.49578 17.7301 5.40282V5Z" fill="white"/>
</svg>
