<svg width="140" height="38" viewBox="0 0 140 38" fill="none" xmlns="http://www.w3.org/2000/svg">
<path d="M10.8 0.999998H17.28V1.52C15.76 1.64 15.36 2.44 15.36 4V19.16C15.36 26.24 12.4 29.4 7.72 29.4C4.28 29.4 1.64 27.4 1 25.72C0.68 24.88 0.76 23.88 1.48 23.44C2.04 23.08 2.84 23.12 3.28 23.56C3.72 24 3.72 24.64 3.72 25.2C3.68 26.52 4.6 28.68 7.88 28.68C11.64 28.68 12.72 25.24 12.72 19.96V4C12.72 2.44 12.32 1.64 10.8 1.52V0.999998ZM37.9778 26C37.9778 27.6 38.3778 28.4 39.8978 28.52V29H35.3778V25.88C34.1778 28 32.2578 29.4 29.4578 29.4C25.1778 29.4 21.7778 27.08 21.7778 21.8V13.96C21.7778 12.4 21.3778 11.56 19.8578 11.44V10.96L24.0178 9.68H24.3778V21.56C24.3778 25.32 25.7778 28.72 30.0178 28.68C32.9378 28.68 35.3778 25.84 35.3778 23.16V13.96C35.3778 12.4 34.9778 11.56 33.4978 11.44V10.96L37.6578 9.68H37.9778V26ZM49.4797 28.52V29H43.0797V28.52C44.5597 28.4 44.9597 27.56 44.9597 26V13.96C44.9597 12.4 44.5597 11.56 43.0797 11.44V10.96L47.2397 9.68H47.5597V26C47.5597 27.56 47.9597 28.4 49.4797 28.52ZM45.9197 6.4C44.8797 6.4 43.9597 5.68 43.9597 4.44C43.9597 3.2 44.8797 2.52 45.9197 2.52C46.9997 2.52 47.9197 3.2 47.9197 4.44C47.9197 5.68 46.9997 6.4 45.9197 6.4ZM68.2194 24.96L68.6994 25.28C67.0994 27.72 64.9794 29.4 61.5394 29.4C56.2594 29.4 51.8594 25.56 51.8594 19.4C51.8594 13.24 56.2194 9.68 61.4994 9.68C64.8194 9.68 67.2594 10.92 68.2194 12.84C68.6594 13.64 68.6594 14.8 67.6594 15.24C66.6994 15.6 65.5794 15.12 65.6594 13.48C65.7394 11.64 64.2194 10.24 61.6194 10.24C57.5794 10.24 54.6194 13.52 54.6194 19.4C54.6594 28.6 64.8194 30.36 68.2194 24.96ZM88.3181 18.2V18.48H73.8381C73.8381 18.8 73.8381 19.08 73.8381 19.4C73.8781 28.6 84.3181 30.36 87.7181 24.96L88.1981 25.28C86.5581 27.72 84.1581 29.44 80.7581 29.44C75.4781 29.44 71.0781 25.56 71.0781 19.4C71.0781 13.24 75.1581 9.68 80.4381 9.68C86.8381 9.68 88.3181 15.16 88.3181 18.2ZM80.4381 10.24C76.7981 10.24 74.3181 12.92 73.9181 17.76H85.8381C85.7581 14.8 85.0381 10.24 80.4381 10.24ZM101.736 1.48C103.056 2.32 103.456 3.68 102.576 4.4C101.776 5.04 100.576 4.48 100.416 2.96C100.296 1.68 99.4159 1.04 98.1759 1.16C95.2959 1.36 96.1359 4.32 96.1359 8.36V10.08H101.336V10.8H96.1359V26C96.1359 27.56 96.5359 28.4 98.0559 28.52V29H91.6559V28.52C93.1359 28.4 93.5359 27.56 93.5359 26V10.8H89.9359V10.08H93.5359V7.16C93.4159 3.56 94.1359 0.599998 98.5359 0.599998C99.8559 0.599998 100.976 0.959999 101.736 1.48ZM117.836 10.08H121.396V10.56C120.396 10.64 119.876 11.32 119.516 12.24L112.796 29C110.156 35.04 108.516 37.16 105.876 37.72C104.756 37.96 103.356 37.8 102.516 37.08C101.796 36.48 101.516 35.2 102.396 34.48C103.316 33.68 104.396 34.32 104.676 35.2C104.956 36.04 105.436 36.8 106.876 36.4C108.316 36 109.796 34.32 111.996 29L104.676 12.28C104.236 11.28 103.476 10.64 102.476 10.56V10.08H108.196V10.56C107.196 10.64 106.916 11.44 107.356 12.44L113.156 26.04L118.676 12.32C119.116 11.16 118.876 10.6 117.836 10.56V10.08ZM139.217 18.2V18.48H124.737C124.737 18.8 124.737 19.08 124.737 19.4C124.777 28.6 135.217 30.36 138.617 24.96L139.097 25.28C137.457 27.72 135.057 29.44 131.657 29.44C126.377 29.44 121.977 25.56 121.977 19.4C121.977 13.24 126.057 9.68 131.337 9.68C137.737 9.68 139.217 15.16 139.217 18.2ZM131.337 10.24C127.697 10.24 125.217 12.92 124.817 17.76H136.737C136.657 14.8 135.937 10.24 131.337 10.24Z" fill="black"/>
</svg>
