<svg width="256" height="256" viewBox="0 0 256 256" fill="none" xmlns="http://www.w3.org/2000/svg">
<rect width="256" height="256" fill="#F85505"/>
<path d="M138.841 40H178.999V43.2225C169.579 43.9662 167.1 48.9239 167.1 58.5916V152.541C167.1 196.417 148.756 216 119.754 216C98.4353 216 82.0748 203.606 78.1086 193.194C76.1255 187.989 76.6213 181.792 81.0832 179.065C84.5536 176.834 89.5114 177.082 92.2382 179.808C94.9649 182.535 94.9649 186.501 94.9649 189.972C94.717 198.152 100.418 211.538 120.745 211.538C144.047 211.538 150.74 190.22 150.74 157.499V58.5916C150.74 48.9239 148.261 43.9662 138.841 43.2225V40Z" fill="white"/>
</svg>
